<svg width="1761" height="518" viewBox="0 0 1761 518" fill="none" xmlns="http://www.w3.org/2000/svg">
<path d="M1749.1 116.76L1717.35 126.488C1715.56 116.504 1707.37 100.888 1684.33 100.888C1667.18 100.888 1655.91 111.896 1655.91 123.928C1655.91 133.912 1662.31 141.848 1675.63 144.408L1700.97 149.272C1733.99 155.672 1751.66 177.176 1751.66 202.776C1751.66 230.68 1728.36 258.84 1686.12 258.84C1637.99 258.84 1616.75 227.864 1613.93 202.008L1646.7 193.304C1648.23 211.224 1660.78 227.352 1686.38 227.352C1705.32 227.352 1715.82 217.88 1715.82 205.08C1715.82 194.584 1707.88 186.392 1693.8 183.576L1668.46 178.456C1639.53 172.568 1620.84 153.88 1620.84 126.488C1620.84 94.2318 1649.77 69.6558 1684.07 69.6558C1728.11 69.6558 1745 96.2798 1749.1 116.76Z" fill="#252129"/>
<path d="M1594.6 116.76L1562.85 126.488C1561.06 116.504 1552.87 100.888 1529.83 100.888C1512.68 100.888 1501.41 111.896 1501.41 123.928C1501.41 133.912 1507.81 141.848 1521.13 144.408L1546.47 149.272C1579.49 155.672 1597.16 177.176 1597.16 202.776C1597.16 230.68 1573.86 258.84 1531.62 258.84C1483.49 258.84 1462.25 227.864 1459.43 202.008L1492.2 193.304C1493.73 211.224 1506.28 227.352 1531.88 227.352C1550.82 227.352 1561.32 217.88 1561.32 205.08C1561.32 194.584 1553.38 186.392 1539.3 183.576L1513.96 178.456C1485.03 172.568 1466.34 153.88 1466.34 126.488C1466.34 94.2318 1495.27 69.6558 1529.57 69.6558C1573.61 69.6558 1590.5 96.2798 1594.6 116.76Z" fill="#252129"/>
<path d="M1437.15 255H1323.49V73.4956H1437.15V106.776H1358.81V148.248H1429.73V179.736H1358.81V221.72H1437.15V255Z" fill="#252129"/>
<path d="M1296.46 255H1180.24V73.4956H1215.56V221.208H1296.46V255Z" fill="#252129"/>
<path d="M1030.31 222.232H1058.47C1088.17 222.232 1113 203.8 1113 164.376C1113 124.952 1088.43 106.264 1058.73 106.264H1030.31V222.232ZM1059.75 255H994.986V73.4956H1060.01C1111.72 73.4956 1149.61 107.032 1149.61 164.376C1149.61 221.72 1111.47 255 1059.75 255Z" fill="#252129"/>
<path d="M953.616 255H916.496L834.064 126.232V255H798.736V73.4956H842.768L918.288 193.56V73.4956H953.616V255Z" fill="#252129"/>
<path d="M763.4 255H649.736V73.4956H763.4V106.776H685.064V148.248H755.976V179.736H685.064V221.72H763.4V255Z" fill="#252129"/>
<g clip-path="url(#clip0_1_27)">
<path d="M405.43 103.43C473.83 103.43 511.25 131.3 511.25 172.92C511.25 214.54 481.98 241.36 410.63 241.36C369.79 241.36 320.75 216.98 271.44 189.3L247.63 209.27L247.18 209.65C302.88 241.25 363.07 272.04 418.23 272.04C476.69 272.04 550.1 243.6 550.1 170.94C550.1 98.28 472.73 52 409.74 52C261.35 52 160.93 229.39 82.35 229.39C65.81 229.39 34.46 223.45 34.46 190.09C34.46 156.73 59.89 142.15 97.21 142.15C116.35 142.15 139.7 151.04 165.75 164.16L190.12 143.58C154.52 124.84 121.31 110.92 93.9 110.92C14.96 110.92 0 165.32 0 194.71C0 224.1 18.6 271.58 83 271.58C209.83 271.58 286.65 103.42 405.43 103.42V103.43Z" fill="#FF6B00"/>
</g>
<path d="M1342.44 483.75L1363.01 476.49C1364.46 488.59 1373.66 498.27 1390.11 498.27C1402.94 498.27 1409.96 491.01 1409.96 482.782C1409.96 475.522 1404.63 469.956 1394.95 467.778L1375.11 463.422C1356.96 459.55 1346.07 447.208 1346.07 430.752C1346.07 410.908 1364.7 393.968 1387.45 393.968C1419.39 393.968 1429.32 414.78 1431.74 425.186L1411.65 432.688C1410.68 426.638 1405.84 413.328 1387.45 413.328C1375.83 413.328 1368.09 420.83 1368.09 428.816C1368.09 435.834 1372.45 440.916 1381.4 442.852L1400.28 446.966C1421.33 451.564 1432.46 464.39 1432.46 481.572C1432.46 498.028 1418.67 517.63 1389.87 517.63C1357.93 517.63 1344.37 497.06 1342.44 483.75Z" fill="#252129"/>
<path d="M1264.69 497.302C1284.05 497.302 1300.99 482.782 1300.99 455.678C1300.99 428.816 1284.05 414.296 1264.69 414.296C1245.33 414.296 1228.39 428.816 1228.39 455.678C1228.39 482.782 1245.33 497.302 1264.69 497.302ZM1264.69 393.968C1299.54 393.968 1324.22 420.346 1324.22 455.678C1324.22 491.252 1299.54 517.63 1264.69 517.63C1229.84 517.63 1205.16 491.252 1205.16 455.678C1205.16 420.346 1229.84 393.968 1264.69 393.968Z" fill="#252129"/>
<path d="M1176.14 514H1153.63V397.598H1176.14V514ZM1148.55 353.554C1148.55 344.358 1155.81 337.098 1164.76 337.098C1173.96 337.098 1181.22 344.358 1181.22 353.554C1181.22 362.508 1173.96 369.768 1164.76 369.768C1155.81 369.768 1148.55 362.508 1148.55 353.554Z" fill="#252129"/>
<path d="M1024.91 455.436C1024.91 479.394 1037.25 497.06 1059.03 497.06C1079.85 497.06 1092.67 478.91 1092.67 454.952C1092.67 430.994 1080.09 414.538 1059.28 414.538C1038.46 414.538 1024.91 431.478 1024.91 455.436ZM1092.91 498.27V496.334C1087.35 507.466 1075.01 517.146 1056.86 517.146C1022.73 517.146 1001.68 490.042 1001.68 455.436C1001.68 422.524 1023.94 394.452 1056.86 394.452C1077.43 394.452 1088.56 404.616 1092.43 414.054V338.792H1114.94V492.462C1114.94 503.594 1115.9 512.064 1116.15 514H1094.12C1093.64 511.338 1092.91 505.288 1092.91 498.27Z" fill="#252129"/>
<path d="M952.186 499.964C945.894 512.064 931.374 517.63 917.822 517.63C890.718 517.63 874.262 497.302 874.262 470.924V397.598H897.01V467.536C897.01 483.508 904.27 497.544 923.388 497.544C941.78 497.544 950.976 485.444 950.976 467.778V397.598H973.724V492.462C973.724 501.658 974.45 509.886 974.934 514H953.154C952.67 511.338 952.186 504.804 952.186 499.964Z" fill="#252129"/>
<path d="M819.94 360.814V397.598H845.108V418.168H819.94V478.668C819.94 489.316 824.296 494.64 836.154 494.64C839.058 494.64 843.172 494.156 845.108 493.672V513.032C843.172 513.758 837.364 515.21 829.62 515.21C809.776 515.21 797.192 503.11 797.192 482.056V418.168H774.928V397.598H781.22C793.804 397.598 799.128 389.854 799.128 379.69V360.814H819.94Z" fill="#252129"/>
<path d="M760.164 381.384L738.868 388.886C736.932 376.544 726.526 359.604 702.568 359.604C683.208 359.604 669.414 372.188 669.414 388.16C669.414 400.502 676.916 409.94 691.436 413.086L717.088 418.652C745.644 424.944 761.616 442.852 761.616 466.81C761.616 493.43 738.868 517.63 702.326 517.63C660.944 517.63 641.342 491.01 638.196 466.568L660.944 459.308C662.638 478.426 676.19 496.092 702.084 496.092C725.8 496.092 737.416 483.75 737.416 468.746C737.416 456.404 728.946 445.756 711.764 442.126L687.322 436.802C662.88 431.478 645.456 415.506 645.456 389.854C645.456 362.992 670.382 338.792 702.084 338.792C740.804 338.792 756.292 362.75 760.164 381.384Z" fill="#252129"/>
<defs>
<clipPath id="clip0_1_27">
<rect width="550.11" height="220.03" fill="white" transform="translate(0 52)"/>
</clipPath>
</defs>
</svg>
